Metropolis-Light Italic.ufo
<glyph name="quotesingle" format="1">
  <advance width="202"/>
  <unicode hex="0027"/>
  <outline>
    <contour>
      <point x="156" y="456" type="line"/>
      <point x="200" y="593"/>
      <point x="206" y="609"/>
      <point x="206" y="622" type="curve" smooth="yes"/>
      <point x="206" y="636"/>
      <point x="196" y="646"/>
      <point x="182" y="646" type="curve" smooth="yes"/>
      <point x="142" y="646"/>
      <point x="142" y="600"/>
      <point x="136" y="544" type="curve" smooth="yes"/>
      <point x="134" y="515"/>
      <point x="131" y="484"/>
      <point x="128" y="456" type="curve"/>
    </contour>
  </outline>
</glyph>
<glyph name="parenleft" format="1">
  <advance width="330"/>
  <unicode hex="0028"/>
  <outline>
    <contour>
      <point x="199" y="-144" type="line"/>
      <point x="127" y="-51"/>
      <point x="89" y="61"/>
      <point x="89" y="170" type="curve" smooth="yes"/>
      <point x="89" y="358"/>
      <point x="215" y="541"/>
      <point x="370" y="673" type="curve"/>
      <point x="349" y="701" type="line"/>
      <point x="187" y="563"/>
      <point x="53" y="368"/>
      <point x="53" y="168" type="curve" smooth="yes"/>
      <point x="53" y="49"/>
      <point x="94" y="-71"/>
      <point x="170" y="-169" type="curve"/>
    </contour>
  </outline>
</glyph>
<glyph name="parenright" format="1">
  <advance width="331"/>
  <unicode hex="0029"/>
  <outline>
    <contour>
      <point x="146" y="-35"/>
      <point x="280" y="161"/>
      <point x="280" y="360" type="curve" smooth="yes"/>
      <point x="280" y="478"/>
      <point x="239" y="599"/>
      <point x="163" y="699" type="curve"/>
      <point x="134" y="675" type="line"/>
      <point x="206" y="582"/>
      <point x="244" y="469"/>
      <point x="244" y="360" type="curve" smooth="yes"/>
      <point x="244" y="172"/>
      <point x="119" y="-11"/>
      <point x="-37" y="-142" type="curve"/>
      <point x="-16" y="-171" type="line"/>
    </contour>
  </outline>
</glyph>
<glyph name="plus" format="1">
  <advance width="594"/>
  <unicode hex="002B"/>
  <outline>
    <contour>
      <point x="538" y="316" type="line"/>
      <point x="546" y="352" type="line"/>
      <point x="87" y="352" type="line"/>
      <point x="79" y="316" type="line"/>
    </contour>
    <contour>
      <point x="283" y="105" type="line"/>
      <point x="379" y="564" type="line"/>
      <point x="343" y="564" type="line"/>
      <point x="247" y="105" type="line"/>
    </contour>
  </outline>
</glyph>
<glyph name="comma" format="1">
  <advance width="243"/>
  <unicode hex="002C"/>
  <outline>
    <contour>
      <point x="84" y="-65"/>
      <point x="113" y="-17"/>
      <point x="113" y="18" type="curve" smooth="yes"/>
      <point x="113" y="37"/>
      <point x="102" y="48"/>
      <point x="85" y="48" type="curve" smooth="yes"/>
      <point x="66" y="48"/>
      <point x="51" y="32"/>
      <point x="51" y="13" type="curve" smooth="yes"/>
      <point x="51" y="-2"/>
      <point x="61" y="-11"/>
      <point x="77" y="-11" type="curve"/>
      <point x="63" y="-39"/>
      <point x="36" y="-73"/>
      <point x="4" y="-103" type="curve"/>
      <point x="28" y="-124" type="line"/>
    </contour>
  </outline>
</glyph>
<glyph name="period" format="1">
  <advance width="205"/>
  <unicode hex="002E"/>
  <outline>
    <contour>
      <point x="67" y="-12"/>
      <point x="83" y="4"/>
      <point x="83" y="22" type="curve" smooth="yes"/>
      <point x="83" y="36"/>
      <point x="73" y="48"/>
      <point x="57" y="48" type="curve" smooth="yes"/>
      <point x="38" y="48"/>
      <point x="23" y="29"/>
      <point x="23" y="14" type="curve" smooth="yes"/>
      <point x="23" y="-1"/>
      <point x="34" y="-12"/>
      <point x="51" y="-12" type="curve" smooth="yes"/>
    </contour>
  </outline>
</glyph>
<glyph name="slash" format="1">
  <advance width="370"/>
  <unicode hex="002F"/>
  <outline>
    <contour>
      <point x="-45" y="-74" type="line"/>
      <point x="476" y="743" type="line"/>
      <point x="436" y="743" type="line"/>
      <point x="-85" y="-74" type="line"/>
    </contour>
  </outline>
</glyph>
<glyph name="five" format="1">
  <advance width="578"/>
  <unicode hex="0035"/>
  <outline>
    <contour>
      <point x="380" y="-12"/>
      <point x="515" y="119"/>
      <point x="515" y="251" type="curve" smooth="yes"/>
      <point x="515" y="346"/>
      <point x="443" y="418"/>
      <point x="341" y="418" type="curve" smooth="yes"/>
      <point x="280" y="418"/>
      <point x="214" y="399"/>
      <point x="167" y="365" type="curve"/>
      <point x="235" y="651" type="line"/>
      <point x="577" y="651" type="line"/>
      <point x="584" y="687" type="line"/>
      <point x="207" y="687" type="line"/>
      <point x="127" y="341" type="line"/>
      <point x="160" y="322" type="line"/>
      <point x="216" y="359"/>
      <point x="279" y="382"/>
      <point x="332" y="382" type="curve" smooth="yes"/>
      <point x="418" y="382"/>
      <point x="479" y="322"/>
      <point x="479" y="245" type="curve" smooth="yes"/>
      <point x="479" y="137"/>
      <point x="364" y="24"/>
      <point x="249" y="24" type="curve" smooth="yes"/>
      <point x="167" y="24"/>
      <point x="93" y="60"/>
      <point x="51" y="123" type="curve"/>
      <point x="23" y="98" type="line"/>
      <point x="69" y="29"/>
      <point x="152" y="-12"/>
      <point x="247" y="-12" type="curve" smooth="yes"/>
    </contour>
  </outline>
</glyph>
<glyph name="eight" format="1">
  <advance width="562"/>
  <unicode hex="0038"/>
  <outline>
    <contour>
      <point x="355" y="-12"/>
      <point x="496" y="85"/>
      <point x="496" y="205" type="curve" smooth="yes"/>
      <point x="496" y="272"/>
      <point x="451" y="331"/>
      <point x="380" y="353" type="curve"/>
      <point x="477" y="383"/>
      <point x="550" y="467"/>
      <point x="550" y="547" type="curve" smooth="yes"/>
      <point x="550" y="632"/>
      <point x="474" y="699"/>
      <point x="369" y="699" type="curve" smooth="yes"/>
      <point x="243" y="699"/>
      <point x="121" y="601"/>
      <point x="121" y="493" type="curve" smooth="yes"/>
      <point x="121" y="432"/>
      <point x="161" y="377"/>
      <point x="221" y="355" type="curve"/>
      <point x="125" y="328"/>
      <point x="32" y="247"/>
      <point x="32" y="148" type="curve" smooth="yes"/>
      <point x="32" y="58"/>
      <point x="114" y="-12"/>
      <point x="227" y="-12" type="curve" smooth="yes"/>
    </contour>
    <contour>
      <point x="135" y="24"/>
      <point x="68" y="81"/>
      <point x="68" y="152" type="curve" smooth="yes"/>
      <point x="68" y="254"/>
      <point x="179" y="328"/>
      <point x="298" y="331" type="curve"/>
      <point x="398" y="328"/>
      <point x="461" y="279"/>
      <point x="461" y="209" type="curve" smooth="yes"/>
      <point x="461" y="112"/>
      <point x="346" y="24"/>
      <point x="229" y="24" type="curve" smooth="yes"/>
    </contour>
    <contour>
      <point x="212" y="378"/>
      <point x="155" y="425"/>
      <point x="155" y="489" type="curve" smooth="yes"/>
      <point x="155" y="581"/>
      <point x="262" y="663"/>
      <point x="367" y="663" type="curve" smooth="yes"/>
      <point x="452" y="663"/>
      <point x="514" y="610"/>
      <point x="514" y="543" type="curve" smooth="yes"/>
      <point x="514" y="450"/>
      <point x="412" y="379"/>
      <point x="301" y="373" type="curve"/>
    </contour>
  </outline>
</glyph>
<glyph name="less" format="1">
  <advance width="587"/>
  <unicode hex="003C"/>
  <outline>
    <contour>
      <point x="487" y="146" type="line"/>
      <point x="120" y="344" type="line"/>
      <point x="569" y="542" type="line"/>
      <point x="578" y="586" type="line"/>
      <point x="77" y="366" type="line"/>
      <point x="69" y="322" type="line"/>
      <point x="478" y="102" type="line"/>
    </contour>
  </outline>
</glyph>
<glyph name="L" format="1">
  <advance width="534"/>
  <unicode hex="004C"/>
  <outline>
    <contour>
      <point x="446" y="0" type="line"/>
      <point x="454" y="36" type="line"/>
      <point x="47" y="36" type="line"/>
      <point x="56" y="24" type="line"/>
      <point x="193" y="687" type="line"/>
      <point x="157" y="687" type="line"/>
      <point x="14" y="0" type="line"/>
    </contour>
  </outline>
</glyph>
<glyph name="M" format="1">
  <advance width="812"/>
  <unicode hex="004D"/>
  <outline>
    <contour>
      <point x="76" y="0" type="line"/>
      <point x="205" y="615" type="line"/>
      <point x="374" y="96" type="line"/>
      <point x="757" y="615" type="line"/>
      <point x="628" y="0" type="line"/>
      <point x="664" y="0" type="line"/>
      <point x="807" y="687" type="line"/>
      <point x="771" y="687" type="line"/>
      <point x="386" y="168" type="line"/>
      <point x="219" y="687" type="line"/>
      <point x="183" y="687" type="line"/>
      <point x="40" y="0" type="line"/>
    </contour>
  </outline>
</glyph>
<glyph name="O" format="1">
  <advance width="806"/>
  <unicode hex="004F"/>
  <outline>
    <contour>
      <point x="567" y="-12"/>
      <point x="778" y="194"/>
      <point x="778" y="410" type="curve" smooth="yes"/>
      <point x="778" y="572"/>
      <point x="659" y="699"/>
      <point x="492" y="699" type="curve" smooth="yes"/>
      <point x="277" y="699"/>
      <point x="62" y="489"/>
      <point x="62" y="272" type="curve" smooth="yes"/>
      <point x="62" y="110"/>
      <point x="181" y="-12"/>
      <point x="349" y="-12" type="curve" smooth="yes"/>
    </contour>
    <contour>
      <point x="203" y="24"/>
      <point x="98" y="132"/>
      <point x="98" y="276" type="curve" smooth="yes"/>
      <point x="98" y="472"/>
      <point x="294" y="663"/>
      <point x="488" y="663" type="curve" smooth="yes"/>
      <point x="637" y="663"/>
      <point x="743" y="551"/>
      <point x="743" y="408" type="curve" smooth="yes"/>
      <point x="743" y="215"/>
      <point x="549" y="24"/>
      <point x="352" y="24" type="curve" smooth="yes"/>
    </contour>
    <contour>
      <point x="490" y="687" type="move" name="top"/>
    </contour>
  </outline>
</glyph>
<glyph name="Q" format="1">
  <advance width="809"/>
  <unicode hex="0051"/>
  <outline>
    <contour>
      <point x="703" y="24" type="line"/>
      <point x="504" y="234" type="line"/>
      <point x="479" y="210" type="line"/>
      <point x="678" y="0" type="line"/>
    </contour>
    <component base="O"/>
  </outline>
</glyph>
<glyph name="R" format="1">
  <advance width="630"/>
  <unicode hex="0052"/>
  <outline>
    <contour>
      <point x="527" y="0" type="line"/>
      <point x="353" y="291" type="line"/>
      <point x="311" y="291" type="line"/>
      <point x="484" y="0" type="line"/>
    </contour>
    <component base="P"/>
  </outline>
</glyph>
<glyph name="U" format="1">
  <advance width="704"/>
  <unicode hex="0055"/>
  <outline>
    <contour>
      <point x="453" y="-12"/>
      <point x="586" y="102"/>
      <point x="619" y="264" type="curve" smooth="yes"/>
      <point x="707" y="687" type="line"/>
      <point x="671" y="687" type="line"/>
      <point x="584" y="266" type="line" smooth="yes"/>
      <point x="555" y="125"/>
      <point x="437" y="24"/>
      <point x="301" y="24" type="curve" smooth="yes"/>
      <point x="167" y="24"/>
      <point x="94" y="123"/>
      <point x="123" y="264" type="curve" smooth="yes"/>
      <point x="211" y="687" type="line"/>
      <point x="175" y="687" type="line"/>
      <point x="88" y="266" type="line" smooth="yes"/>
      <point x="54" y="104"/>
      <point x="141" y="-12"/>
      <point x="299" y="-12" type="curve" smooth="yes"/>
    </contour>
  </outline>
</glyph>
<glyph name="backslash" format="1">
  <advance width="368"/>
  <unicode hex="005C"/>
  <outline>
    <contour>
      <point x="315" y="-74" type="line"/>
      <point x="134" y="743" type="line"/>
      <point x="96" y="743" type="line"/>
      <point x="277" y="-74" type="line"/>
    </contour>
  </outline>
</glyph>
<glyph name="a" format="1">
  <advance width="611"/>
  <unicode hex="0061"/>
  <outline>
    <contour>
      <point x="474" y="0" type="line"/>
      <point x="581" y="517" type="line"/>
      <point x="545" y="517" type="line"/>
      <point x="438" y="0" type="line"/>
    </contour>
    <component base="lowercase_loop_reverse" xOffset="-35"/>
  </outline>
</glyph>
<glyph name="b" format="1">
  <advance width="611"/>
  <unicode hex="0062"/>
  <outline>
    <contour>
      <point x="66" y="1" type="line"/>
      <point x="211" y="699" type="line"/>
      <point x="175" y="699" type="line"/>
      <point x="30" y="1" type="line"/>
    </contour>
    <component base="lowercase_loop" xOffset="-6"/>
  </outline>
</glyph>
<glyph name="d" format="1">
  <advance width="611"/>
  <unicode hex="0064"/>
  <outline>
    <contour>
      <point x="474" y="1" type="line"/>
      <point x="619" y="699" type="line"/>
      <point x="583" y="699" type="line"/>
      <point x="438" y="1" type="line"/>
    </contour>
    <component base="lowercase_loop_reverse" xOffset="-35"/>
  </outline>
</glyph>
<glyph name="f" format="1">
  <advance width="341"/>
  <unicode hex="0066"/>
  <outline>
    <contour>
      <point x="110" y="0" type="line"/>
      <point x="232" y="587" type="line" smooth="yes"/>
      <point x="244" y="643"/>
      <point x="282" y="684"/>
      <point x="333" y="684" type="curve" smooth="yes"/>
      <point x="354" y="684"/>
      <point x="378" y="677"/>
      <point x="395" y="660" type="curve"/>
      <point x="419" y="686" type="line"/>
      <point x="395" y="708"/>
      <point x="365" y="720"/>
      <point x="327" y="720" type="curve" smooth="yes"/>
      <point x="267" y="720"/>
      <point x="213" y="666"/>
      <point x="197" y="589" type="curve" smooth="yes"/>
      <point x="74" y="0" type="line"/>
    </contour>
    <contour>
      <point x="356" y="481" type="line"/>
      <point x="363" y="517" type="line"/>
      <point x="91" y="517" type="line"/>
      <point x="84" y="481" type="line"/>
    </contour>
  </outline>
</glyph>
<glyph name="g" format="1">
  <advance width="598"/>
  <unicode hex="0067"/>
  <outline>
    <contour>
      <point x="436" y="56" type="line" smooth="yes"/>
      <point x="413" y="-56"/>
      <point x="310" y="-136"/>
      <point x="193" y="-136" type="curve" smooth="yes"/>
      <point x="127" y="-136"/>
      <point x="55" y="-110"/>
      <point x="18" y="-72" type="curve"/>
      <point x="-4" y="-102" type="line"/>
      <point x="35" y="-142"/>
      <point x="116" y="-172"/>
      <point x="193" y="-172" type="curve" smooth="yes"/>
      <point x="329" y="-172"/>
      <point x="444" y="-79"/>
      <point x="472" y="54" type="curve" smooth="yes"/>
      <point x="568" y="517" type="line"/>
      <point x="532" y="517" type="line"/>
    </contour>
    <contour>
      <point x="134" y="74"/>
      <point x="72" y="145"/>
      <point x="72" y="237" type="curve" smooth="yes"/>
      <point x="72" y="365"/>
      <point x="191" y="493"/>
      <point x="326" y="493" type="curve" smooth="yes"/>
      <point x="423" y="493"/>
      <point x="489" y="426"/>
      <point x="489" y="332" type="curve" smooth="yes"/>
      <point x="489" y="199"/>
      <point x="367" y="74"/>
      <point x="233" y="74" type="curve" smooth="yes"/>
    </contour>
    <contour>
      <point x="508" y="381" type="line"/>
      <point x="495" y="476"/>
      <point x="416" y="529"/>
      <point x="324" y="529" type="curve" smooth="yes"/>
      <point x="173" y="529"/>
      <point x="36" y="385"/>
      <point x="36" y="232" type="curve" smooth="yes"/>
      <point x="36" y="121"/>
      <point x="112" y="38"/>
      <point x="225" y="38" type="curve" smooth="yes"/>
      <point x="310" y="38"/>
      <point x="413" y="86"/>
      <point x="468" y="185" type="curve"/>
    </contour>
    <contour>
      <point x="338" y="517" type="move" name="top"/>
    </contour>
    <contour>
      <point x="193" y="-172" type="move" name="bottom"/>
    </contour>
  </outline>
</glyph>
<glyph name="h" format="1">
  <advance width="553"/>
  <unicode hex="0068"/>
  <outline>
    <contour>
      <point x="60" y="0" type="line"/>
      <point x="205" y="699" type="line"/>
      <point x="169" y="699" type="line"/>
      <point x="24" y="0" type="line"/>
    </contour>
    <component base="lowercase_nh_shoulder" xOffset="-38"/>
  </outline>
</glyph>
<glyph name="i" format="1">
  <advance width="186"/>
  <unicode hex="0069"/>
  <outline>
    <contour>
      <point x="189" y="631"/>
      <point x="206" y="647"/>
      <point x="206" y="665" type="curve" smooth="yes"/>
      <point x="206" y="680"/>
      <point x="195" y="691"/>
      <point x="179" y="691" type="curve" smooth="yes"/>
      <point x="161" y="691"/>
      <point x="146" y="673"/>
      <point x="146" y="656" type="curve" smooth="yes"/>
      <point x="146" y="641"/>
      <point x="157" y="631"/>
      <point x="173" y="631" type="curve" smooth="yes"/>
    </contour>
    <component base="idotless"/>
  </outline>
</glyph>
<glyph name="k" format="1">
  <advance width="501"/>
  <unicode hex="006B"/>
  <outline>
    <contour>
      <point x="57" y="0" type="line"/>
      <point x="86" y="134" type="line"/>
      <point x="230" y="255" type="line"/>
      <point x="375" y="0" type="line"/>
      <point x="420" y="0" type="line"/>
      <point x="259" y="280" type="line"/>
      <point x="541" y="517" type="line"/>
      <point x="489" y="517" type="line"/>
      <point x="96" y="186" type="line"/>
      <point x="203" y="699" type="line"/>
      <point x="167" y="699" type="line"/>
      <point x="21" y="0" type="line"/>
    </contour>
  </outline>
</glyph>
<glyph name="m" format="1">
  <advance width="859"/>
  <unicode hex="006D"/>
  <outline>
    <contour>
      <point x="728" y="0" type="line"/>
      <point x="798" y="336"/>
      <point x="804" y="351"/>
      <point x="804" y="381" type="curve" smooth="yes"/>
      <point x="804" y="471"/>
      <point x="752" y="529"/>
      <point x="659" y="529" type="curve" smooth="yes"/>
      <point x="568" y="529"/>
      <point x="483" y="473"/>
      <point x="456" y="392" type="curve"/>
      <point x="464" y="340" type="line"/>
      <point x="482" y="429"/>
      <point x="563" y="493"/>
      <point x="651" y="493" type="curve" smooth="yes"/>
      <point x="725" y="493"/>
      <point x="767" y="447"/>
      <point x="767" y="372" type="curve" smooth="yes"/>
      <point x="767" y="352"/>
      <point x="764" y="344"/>
      <point x="692" y="0" type="curve"/>
    </contour>
    <contour>
      <point x="393" y="0" type="line"/>
      <point x="463" y="336"/>
      <point x="469" y="351"/>
      <point x="469" y="381" type="curve" smooth="yes"/>
      <point x="469" y="471"/>
      <point x="417" y="529"/>
      <point x="323" y="529" type="curve" smooth="yes"/>
      <point x="231" y="529"/>
      <point x="148" y="474"/>
      <point x="131" y="392" type="curve"/>
      <point x="129" y="340" type="line"/>
      <point x="147" y="429"/>
      <point x="228" y="493"/>
      <point x="316" y="493" type="curve" smooth="yes"/>
      <point x="390" y="493"/>
      <point x="432" y="447"/>
      <point x="432" y="372" type="curve" smooth="yes"/>
      <point x="432" y="352"/>
      <point x="429" y="344"/>
      <point x="357" y="0" type="curve"/>
    </contour>
    <component base="idotless" xOffset="1"/>
  </outline>
</glyph>
<glyph name="n" format="1">
  <advance width="553"/>
  <unicode hex="006E"/>
  <outline>
    <contour>
      <point x="60" y="0" type="line"/>
      <point x="167" y="517" type="line"/>
      <point x="131" y="517" type="line"/>
      <point x="24" y="0" type="line"/>
    </contour>
    <component base="lowercase_nh_shoulder" xOffset="-38"/>
    <contour>
      <point x="333" y="517" type="move" name="top"/>
    </contour>
    <contour>
      <point x="225" y="0" type="move" name="bottom"/>
    </contour>
  </outline>
</glyph>
<glyph name="o" format="1">
  <advance width="632"/>
  <unicode hex="006F"/>
  <outline>
    <contour>
      <point x="440" y="-12"/>
      <point x="589" y="136"/>
      <point x="589" y="311" type="curve" smooth="yes"/>
      <point x="589" y="429"/>
      <point x="489" y="529"/>
      <point x="370" y="529" type="curve" smooth="yes"/>
      <point x="192" y="529"/>
      <point x="43" y="382"/>
      <point x="43" y="207" type="curve" smooth="yes"/>
      <point x="43" y="88"/>
      <point x="144" y="-12"/>
      <point x="263" y="-12" type="curve" smooth="yes"/>
    </contour>
    <contour>
      <point x="164" y="24"/>
      <point x="79" y="109"/>
      <point x="79" y="209" type="curve" smooth="yes"/>
      <point x="79" y="363"/>
      <point x="211" y="493"/>
      <point x="368" y="493" type="curve" smooth="yes"/>
      <point x="468" y="493"/>
      <point x="553" y="408"/>
      <point x="553" y="308" type="curve" smooth="yes"/>
      <point x="553" y="154"/>
      <point x="421" y="24"/>
      <point x="265" y="24" type="curve" smooth="yes"/>
    </contour>
    <contour>
      <point x="370" y="517" type="move" name="top"/>
    </contour>
  </outline>
</glyph>
<glyph name="p" format="1">
  <advance width="611"/>
  <unicode hex="0070"/>
  <outline>
    <contour>
      <point x="30" y="-172" type="line"/>
      <point x="173" y="517" type="line"/>
      <point x="137" y="517" type="line"/>
      <point x="-6" y="-172" type="line"/>
    </contour>
    <component base="lowercase_loop" xOffset="-6"/>
  </outline>
</glyph>
<glyph name="q" format="1">
  <advance width="611"/>
  <unicode hex="0071"/>
  <outline>
    <contour>
      <point x="438" y="-172" type="line"/>
      <point x="581" y="517" type="line"/>
      <point x="545" y="517" type="line"/>
      <point x="402" y="-172" type="line"/>
    </contour>
    <component base="lowercase_loop_reverse" xOffset="-35"/>
  </outline>
</glyph>
<glyph name="r" format="1">
  <advance width="348"/>
  <unicode hex="0072"/>
  <outline>
    <contour>
      <point x="151" y="407"/>
      <point x="252" y="493"/>
      <point x="369" y="493" type="curve"/>
      <point x="374" y="529" type="line"/>
      <point x="267" y="529"/>
      <point x="158" y="471"/>
      <point x="134" y="360" type="curve"/>
      <point x="125" y="288" type="line"/>
    </contour>
    <contour>
      <point x="65" y="0" type="line"/>
      <point x="173" y="517" type="line"/>
      <point x="137" y="517" type="line"/>
      <point x="29" y="0" type="line"/>
    </contour>
  </outline>
</glyph>
<glyph name="x" format="1">
  <advance width="507"/>
  <unicode hex="0078"/>
  <outline>
    <contour>
      <point x="421" y="0" type="line"/>
      <point x="137" y="517" type="line"/>
      <point x="95" y="517" type="line"/>
      <point x="378" y="0" type="line"/>
    </contour>
    <contour>
      <point x="23" y="0" type="line"/>
      <point x="522" y="517" type="line"/>
      <point x="476" y="517" type="line"/>
      <point x="-22" y="0" type="line"/>
    </contour>
  </outline>
</glyph>
<glyph name="braceright" format="1">
  <advance width="395"/>
  <unicode hex="007D"/>
  <outline>
    <contour>
      <point x="100" y="-151"/>
      <point x="162" y="-104"/>
      <point x="184" y="2" type="curve" smooth="yes"/>
      <point x="213" y="143" type="line" smooth="yes"/>
      <point x="229" y="217"/>
      <point x="269" y="248"/>
      <point x="350" y="248" type="curve"/>
      <point x="354" y="284" type="line"/>
      <point x="288" y="284"/>
      <point x="259" y="303"/>
      <point x="259" y="350" type="curve" smooth="yes"/>
      <point x="259" y="385"/>
      <point x="298" y="525"/>
      <point x="298" y="574" type="curve" smooth="yes"/>
      <point x="298" y="648"/>
      <point x="250" y="684"/>
      <point x="141" y="697" type="curve"/>
      <point x="133" y="662" type="line"/>
      <point x="223" y="652"/>
      <point x="262" y="623"/>
      <point x="262" y="564" type="curve" smooth="yes"/>
      <point x="262" y="517"/>
      <point x="222" y="389"/>
      <point x="222" y="337" type="curve" smooth="yes"/>
      <point x="222" y="299"/>
      <point x="238" y="277"/>
      <point x="273" y="267" type="curve"/>
      <point x="218" y="251"/>
      <point x="193" y="219"/>
      <point x="179" y="152" type="curve" smooth="yes"/>
      <point x="150" y="9" type="line" smooth="yes"/>
      <point x="132" y="-78"/>
      <point x="78" y="-119"/>
      <point x="-35" y="-131" type="curve"/>
      <point x="-35" y="-166" type="line"/>
    </contour>
  </outline>
</glyph>
<glyph name="sterling" format="1">
  <advance width="569"/>
  <unicode hex="00A3"/>
  <outline>
    <contour>
      <point x="469" y="0" type="line"/>
      <point x="477" y="36" type="line"/>
      <point x="80" y="36" type="line"/>
      <point x="89" y="24" type="line"/>
      <point x="179" y="462" type="line" smooth="yes"/>
      <point x="204" y="579"/>
      <point x="293" y="663"/>
      <point x="394" y="663" type="curve" smooth="yes"/>
      <point x="474" y="663"/>
      <point x="532" y="625"/>
      <point x="549" y="558" type="curve"/>
      <point x="577" y="578" type="line"/>
      <point x="557" y="653"/>
      <point x="490" y="699"/>
      <point x="396" y="699" type="curve" smooth="yes"/>
      <point x="276" y="699"/>
      <point x="173" y="602"/>
      <point x="144" y="464" type="curve" smooth="yes"/>
      <point x="55" y="36" type="line"/>
      <point x="5" y="18" type="line"/>
      <point x="1" y="0" type="line"/>
    </contour>
    <contour>
      <point x="354" y="277" type="line"/>
      <point x="362" y="313" type="line"/>
      <point x="67" y="313" type="line"/>
      <point x="59" y="277" type="line"/>
    </contour>
  </outline>
</glyph>
<glyph name="dieresis" format="1">
  <advance width="410"/>
  <unicode hex="00A8"/>
  <outline>
    <contour>
      <point x="202" y="613"/>
      <point x="219" y="630"/>
      <point x="219" y="645" type="curve" smooth="yes"/>
      <point x="219" y="661"/>
      <point x="208" y="673"/>
      <point x="192" y="673" type="curve" smooth="yes"/>
      <point x="174" y="673"/>
      <point x="159" y="655"/>
      <point x="159" y="639" type="curve" smooth="yes"/>
      <point x="159" y="624"/>
      <point x="170" y="613"/>
      <point x="186" y="613" type="curve" smooth="yes"/>
    </contour>
    <contour>
      <point x="394" y="613"/>
      <point x="411" y="630"/>
      <point x="411" y="645" type="curve" smooth="yes"/>
      <point x="411" y="661"/>
      <point x="400" y="673"/>
      <point x="384" y="673" type="curve" smooth="yes"/>
      <point x="366" y="673"/>
      <point x="351" y="655"/>
      <point x="351" y="639" type="curve" smooth="yes"/>
      <point x="351" y="624"/>
      <point x="362" y="613"/>
      <point x="378" y="613" type="curve" smooth="yes"/>
    </contour>
    <contour>
      <point x="298" y="704" type="move" name="top"/>
    </contour>
    <contour>
      <point x="259" y="517" type="move" name="_top"/>
    </contour>
  </outline>
</glyph>
<glyph name="periodcentered" format="1">
  <advance width="187"/>
  <unicode hex="00B7"/>
  <outline>
    <contour>
      <point x="109" y="241"/>
      <point x="124" y="255"/>
      <point x="124" y="272" type="curve" smooth="yes"/>
      <point x="124" y="286"/>
      <point x="114" y="296"/>
      <point x="99" y="296" type="curve" smooth="yes"/>
      <point x="82" y="296"/>
      <point x="68" y="281"/>
      <point x="68" y="265" type="curve" smooth="yes"/>
      <point x="68" y="251"/>
      <point x="78" y="241"/>
      <point x="94" y="241" type="curve" smooth="yes"/>
    </contour>
  </outline>
</glyph>
<glyph name="ae" format="1">
  <advance width="960"/>
  <unicode hex="00E6"/>
  <outline>
    <contour>
      <point x="327" y="-12"/>
      <point x="440" y="81"/>
      <point x="468" y="215" type="curve"/>
      <point x="489" y="314" type="line" smooth="yes"/>
      <point x="515" y="439"/>
      <point x="457" y="529"/>
      <point x="332" y="529" type="curve" smooth="yes"/>
      <point x="279" y="529"/>
      <point x="209" y="513"/>
      <point x="145" y="480" type="curve"/>
      <point x="156" y="447" type="line"/>
      <point x="210" y="476"/>
      <point x="271" y="493"/>
      <point x="325" y="493" type="curve" smooth="yes"/>
      <point x="446" y="493"/>
      <point x="471" y="403"/>
      <point x="453" y="316" type="curve" smooth="yes"/>
      <point x="433" y="217" type="line"/>
      <point x="409" y="105"/>
      <point x="312" y="24"/>
      <point x="199" y="24" type="curve" smooth="yes"/>
      <point x="104" y="24"/>
      <point x="48" y="77"/>
      <point x="64" y="152" type="curve" smooth="yes"/>
      <point x="81" y="232"/>
      <point x="165" y="289"/>
      <point x="272" y="289" type="curve" smooth="yes"/>
      <point x="335" y="289"/>
      <point x="403" y="269"/>
      <point x="454" y="249" type="curve"/>
      <point x="458" y="283" type="line"/>
      <point x="402" y="307"/>
      <point x="332" y="325"/>
      <point x="269" y="325" type="curve" smooth="yes"/>
      <point x="146" y="325"/>
      <point x="50" y="255"/>
      <point x="29" y="157" type="curve" smooth="yes"/>
      <point x="9" y="58"/>
      <point x="77" y="-12"/>
      <point x="193" y="-12" type="curve" smooth="yes"/>
    </contour>
    <component base="e" xOffset="393"/>
  </outline>
</glyph>
<glyph name="eth" format="1">
  <advance width="613"/>
  <unicode hex="00F0"/>
  <outline>
    <contour>
      <point x="152" y="24"/>
      <point x="88" y="90"/>
      <point x="88" y="188" type="curve" smooth="yes"/>
      <point x="88" y="332"/>
      <point x="203" y="467"/>
      <point x="354" y="467" type="curve" smooth="yes"/>
      <point x="459" y="467"/>
      <point x="521" y="403"/>
      <point x="521" y="306" type="curve" smooth="yes"/>
      <point x="521" y="162"/>
      <point x="405" y="24"/>
      <point x="255" y="24" type="curve" smooth="yes"/>
    </contour>
    <contour>
      <point x="483" y="525"/>
      <point x="517" y="414" type="curve"/>
      <point x="482" y="478"/>
      <point x="422" y="503"/>
      <point x="355" y="503" type="curve" smooth="yes"/>
      <point x="186" y="503"/>
      <point x="52" y="353"/>
      <point x="52" y="186" type="curve" smooth="yes"/>
      <point x="52" y="67"/>
      <point x="129" y="-12"/>
      <point x="254" y="-12" type="curve" smooth="yes"/>
      <point x="428" y="-12"/>
      <point x="559" y="149"/>
      <point x="559" y="325" type="curve" smooth="yes"/>
      <point x="559" y="483"/>
      <point x="453" y="625"/>
      <point x="324" y="712" type="curve"/>
      <point x="290" y="697" type="line"/>
      <point x="394" y="623"/>
    </contour>
    <contour>
      <point x="523" y="652" type="line"/>
      <point x="514" y="685" type="line"/>
      <point x="253" y="578" type="line"/>
      <point x="262" y="545" type="line"/>
    </contour>
  </outline>
</glyph>
<glyph name="thorn" format="1">
  <advance width="611"/>
  <unicode hex="00FE"/>
  <outline>
    <contour>
      <point x="30" y="-172" type="line"/>
      <point x="211" y="699" type="line"/>
      <point x="175" y="699" type="line"/>
      <point x="-6" y="-172" type="line"/>
    </contour>
    <component base="lowercase_loop" xOffset="-6"/>
  </outline>
</glyph>
<glyph name="idotless" format="1">
  <advance width="186"/>
  <unicode hex="0131"/>
  <outline>
    <contour>
      <point x="57" y="0" type="line"/>
      <point x="165" y="517" type="line"/>
      <point x="129" y="517" type="line"/>
      <point x="21" y="0" type="line"/>
    </contour>
  </outline>
</glyph>
<glyph name="lslash" format="1">
  <advance width="269"/>
  <unicode hex="0142"/>
  <outline>
    <contour>
      <point x="251" y="349" type="line"/>
      <point x="259" y="390" type="line"/>
      <point x="44" y="290" type="line"/>
      <point x="36" y="249" type="line"/>
    </contour>
    <component base="l" xOffset="40"/>
  </outline>
</glyph>
<glyph name="OE" format="1">
  <advance width="995"/>
  <unicode hex="0152"/>
  <outline>
    <contour>
      <point x="456" y="0" type="line"/>
      <point x="464" y="36" type="line"/>
      <point x="356" y="36" type="line" smooth="yes"/>
      <point x="205" y="36"/>
      <point x="99" y="139"/>
      <point x="99" y="280" type="curve" smooth="yes"/>
      <point x="99" y="475"/>
      <point x="290" y="651"/>
      <point x="487" y="651" type="curve" smooth="yes"/>
      <point x="592" y="651" type="line"/>
      <point x="599" y="687" type="line"/>
      <point x="492" y="687" type="line" smooth="yes"/>
      <point x="271" y="687"/>
      <point x="63" y="491"/>
      <point x="63" y="277" type="curve" smooth="yes"/>
      <point x="63" y="117"/>
      <point x="185" y="0"/>
      <point x="352" y="0" type="curve" smooth="yes"/>
    </contour>
    <component base="E" xOffset="410"/>
  </outline>
</glyph>
<glyph name="circumflex" format="1">
  <advance width="384"/>
  <unicode hex="02C6"/>
  <outline>
    <contour>
      <point x="174" y="576" type="line"/>
      <point x="280" y="682" type="line"/>
      <point x="344" y="576" type="line"/>
      <point x="387" y="576" type="line"/>
      <point x="307" y="713" type="line"/>
      <point x="263" y="713" type="line"/>
      <point x="129" y="576" type="line"/>
    </contour>
    <contour>
      <point x="284" y="704" type="move" name="top"/>
    </contour>
    <contour>
      <point x="245" y="517" type="move" name="_top"/>
    </contour>
  </outline>
</glyph>
<glyph name="caron" format="1">
  <advance width="384"/>
  <unicode hex="02C7"/>
  <outline>
    <contour>
      <point x="280" y="576" type="line"/>
      <point x="416" y="713" type="line"/>
      <point x="371" y="713" type="line"/>
      <point x="263" y="607" type="line"/>
      <point x="201" y="713" type="line"/>
      <point x="158" y="713" type="line"/>
      <point x="236" y="576" type="line"/>
    </contour>
    <contour>
      <point x="284" y="704" type="move" name="top"/>
    </contour>
    <contour>
      <point x="245" y="517" type="move" name="_top"/>
    </contour>
  </outline>
</glyph>
<glyph name="dotaccent" format="1">
  <advance width="186"/>
  <unicode hex="02D9"/>
  <outline>
    <contour>
      <point x="186" y="613"/>
      <point x="203" y="630"/>
      <point x="203" y="645" type="curve" smooth="yes"/>
      <point x="203" y="661"/>
      <point x="192" y="673"/>
      <point x="176" y="673" type="curve" smooth="yes"/>
      <point x="158" y="673"/>
      <point x="143" y="655"/>
      <point x="143" y="639" type="curve" smooth="yes"/>
      <point x="143" y="624"/>
      <point x="154" y="613"/>
      <point x="170" y="613" type="curve" smooth="yes"/>
    </contour>
    <contour>
      <point x="186" y="704" type="move" name="top"/>
    </contour>
    <contour>
      <point x="39" y="0" type="move" name="bottom"/>
    </contour>
    <contour>
      <point x="147" y="517" type="move" name="_top"/>
    </contour>
  </outline>
</glyph>
<glyph name="endash" format="1">
  <advance width="577"/>
  <unicode hex="2013"/>
  <outline>
    <contour>
      <point x="520" y="254" type="line"/>
      <point x="528" y="290" type="line"/>
      <point x="63" y="290" type="line"/>
      <point x="55" y="254" type="line"/>
    </contour>
  </outline>
</glyph>
<glyph name="bullet" format="1">
  <advance width="388"/>
  <unicode hex="2022"/>
  <outline>
    <contour>
      <point x="243" y="196"/>
      <point x="303" y="253"/>
      <point x="303" y="316" type="curve" smooth="yes"/>
      <point x="303" y="363"/>
      <point x="268" y="399"/>
      <point x="219" y="399" type="curve" smooth="yes"/>
      <point x="157" y="399"/>
      <point x="97" y="341"/>
      <point x="97" y="280" type="curve" smooth="yes"/>
      <point x="97" y="232"/>
      <point x="132" y="196"/>
      <point x="182" y="196" type="curve" smooth="yes"/>
    </contour>
  </outline>
</glyph>
<glyph name="lowercase_loop" format="1">
  <advance width="607"/>
  <outline>
    <contour>
      <point x="423" y="-12"/>
      <point x="569" y="153"/>
      <point x="569" y="318" type="curve" smooth="yes"/>
      <point x="569" y="442"/>
      <point x="492" y="529"/>
      <point x="384" y="529" type="curve" smooth="yes"/>
      <point x="221" y="529"/>
      <point x="83" y="374"/>
      <point x="83" y="190" type="curve" smooth="yes"/>
      <point x="83" y="63"/>
      <point x="155" y="-12"/>
      <point x="277" y="-12" type="curve" smooth="yes"/>
    </contour>
    <contour>
      <point x="176" y="24"/>
      <point x="119" y="86"/>
      <point x="119" y="192" type="curve" smooth="yes"/>
      <point x="119" y="355"/>
      <point x="236" y="493"/>
      <point x="375" y="493" type="curve" smooth="yes"/>
      <point x="467" y="493"/>
      <point x="532" y="419"/>
      <point x="532" y="314" type="curve" smooth="yes"/>
      <point x="532" y="169"/>
      <point x="402" y="24"/>
      <point x="272" y="24" type="curve" smooth="yes"/>
    </contour>
  </outline>
</glyph>
<glyph name="lowercase_nh_shoulder" format="1">
  <advance width="599"/>
  <outline>
    <contour>
      <point x="460" y="0" type="line"/>
      <point x="531" y="339"/>
      <point x="536" y="353"/>
      <point x="536" y="381" type="curve" smooth="yes"/>
      <point x="536" y="469"/>
      <point x="474" y="529"/>
      <point x="375" y="529" type="curve" smooth="yes"/>
      <point x="269" y="529"/>
      <point x="180" y="460"/>
      <point x="160" y="361" type="curve"/>
      <point x="166" y="329" type="line"/>
      <point x="186" y="424"/>
      <point x="269" y="493"/>
      <point x="368" y="493" type="curve" smooth="yes"/>
      <point x="448" y="493"/>
      <point x="498" y="445"/>
      <point x="498" y="372" type="curve" smooth="yes"/>
      <point x="498" y="343"/>
      <point x="492" y="322"/>
      <point x="424" y="0" type="curve"/>
    </contour>
  </outline>
</glyph>
